<svg width="24" height="24" viewBox="0 0 24 24" xmlns="http://www.w3.org/2000/svg" xmlns:xlink="http://www.w3.org/1999/xlink">
    <defs>
        <path d="M12 2a5 5 0 0 1 3.07 8.948l3.637 3.638V22h-2v-6.586l-3.549-3.549a5.014 5.014 0 0 1-2.547-.06L7 15.414V22H5v-7.414l3.77-3.77A5 5 0 0 1 12 2zm0 2a3 3 0 1 0 0 6 3 3 0 0 0 0-6z" id="70u9ojna2a"/>
    </defs>
    <g fill="none" fill-rule="evenodd">
        <mask id="cup3acbhab" fill="#fff">
            <use xlink:href="#70u9ojna2a"/>
        </mask>
        <use fill="#979797" fill-rule="nonzero" xlink:href="#70u9ojna2a"/>
        <g mask="url(#cup3acbhab)" fill="#353F49">
            <path d="M0 0h24v24H0z"/>
        </g>
    </g>
</svg>
