<svg width="24" height="24" viewBox="0 0 24 24" xmlns="http://www.w3.org/2000/svg" xmlns:xlink="http://www.w3.org/1999/xlink">
    <defs>
        <path d="M12 2a5 5 0 0 1 3.07 8.948l3.637 3.638V22h-2v-6.586l-2.79-2.789L13 14l1 6-2 2-2-2 1-6-1.035-1.551L7 15.414V22H5v-7.414l3.77-3.77A5 5 0 0 1 12 2zm0 2a3 3 0 1 0 0 6 3 3 0 0 0 0-6z" id="1hjs5fzsya"/>
    </defs>
    <g fill="none" fill-rule="evenodd">
        <mask id="nfp0oyoxab" fill="#fff">
            <use xlink:href="#1hjs5fzsya"/>
        </mask>
        <use fill="#979797" fill-rule="nonzero" xlink:href="#1hjs5fzsya"/>
        <g mask="url(#nfp0oyoxab)" fill="#353F49">
            <path d="M0 0h24v24H0z"/>
        </g>
    </g>
</svg>
