<svg data-name="Layer 1" xmlns="http://www.w3.org/2000/svg" viewBox="0 0 512 512"><path d="M512 256c0 141.39-114.62 256-256 256S0 397.39 0 256 114.62 0 256 0s256 114.63 256 256zm-389-12.58a365.39 365.39 0 0117.8-101.84l-85.52-.08a229.68 229.68 0 00-30 101.93zM243.51 141.5h-76.23A338.35 338.35 0 00148 243.42h95.53zm0-116.21c-26.92 24-49.63 55.13-66 91h66zm-171.66 91h78.43a320.78 320.78 0 0152.23-85C148.55 43.48 102.41 76 71.84 116.28zM486.7 243.42a229.57 229.57 0 00-30-101.93l-85.53.08A365.52 365.52 0 01389 243.42zm-218.2 0H364a337.76 337.76 0 00-19.3-101.93h-76.2zm0-127.14h66c-16.42-35.86-39.13-66.95-66-91zm41-85a320.19 320.19 0 0152.23 85h78.42C409.59 76 363.45 43.48 309.5 31.3zM25.31 268.57a229.63 229.63 0 0030 101.94l85.52-.08A365.34 365.34 0 01123 268.57zm218.2 0H148a338.32 338.32 0 0019.3 101.94h76.23zm0 127.17h-66c16.42 35.86 39.13 66.92 66 91zm-41 85a320.79 320.79 0 01-52.23-85H71.84c30.57 40.26 76.71 72.8 130.66 84.96zM389 268.57a365.47 365.47 0 01-17.81 101.86l85.53.08a229.52 229.52 0 0030-101.94zM268.5 370.51h76.21A337.73 337.73 0 00364 268.57h-95.5zm0 116.22c26.91-24.07 49.63-55.13 66-91h-66zm171.65-91h-78.42a320.19 320.19 0 01-52.23 85c53.95-12.19 100.09-44.73 130.65-84.99z" fill="#231f20"/></svg>