<svg class="svg-logo" aria-hidden="true" width="77" fill="white" height="20" viewBox="0 0 77 20" xmlns="http://www.w3.org/2000/svg"><g><path d="M22.634 6.51c.907-.787 1.897-1.41 4.03-1.63v3.69l-1.358.218c-1.974.353-2.565.647-2.565 2.44v7.965h-4.113V5.016h4.007V6.51zm14.15-1.63h4.112v14.147h-4.113v-1.354c-.403.46-.644.733-1.39 1.114-.83.427-1.734.648-2.644.648-.91 0-2.59-.135-3.553-1.49-.72-1.033-.852-1.872-.852-4.178V4.88h4.137v8.784c0 .62 0 1.242.32 1.68.24.323.8.704 1.63.704.238 0 .8 0 1.414-.355.88-.54.907-1.243.937-2.005V4.88zM16.41 10.925c.668.73 1.043 1.782 1.043 2.873 0 1.49-.775 3.575-3.126 4.632-1.416.625-2.94.706-5.102.706H1.268V7.538l8.037.02c1.068-.024 2.805-.077 2.805-2.057 0-1.842-1.576-1.923-2.484-1.923L3.508 3.56 0 0h8.56c1.974 0 3.765.08 4.914.462 2.322.757 3.257 2.63 3.257 4.445 0 1.027-.267 1.654-.347 1.84-.854 1.952-2.67 2.33-3.684 2.548 1.148.19 2.668.437 3.71 1.63zM9.04 15.667c1.576-.03 3.632-.082 3.632-2.275 0-2.307-1.87-2.333-2.83-2.36H5.755v4.635h3.282zm38.83-9.163c.4-.435.672-.762 1.39-1.112.64-.27 1.55-.512 2.537-.512.827 0 1.762.16 2.485.564 1.468.788 1.84 2.063 1.84 4.258v9.676h-4.084v-7.964c0-1.28-.028-1.738-.187-2.12-.32-.754-1.04-1.083-1.84-1.083-2.166 0-2.166 1.763-2.166 3.528v7.64h-4.112V5.256h4.137v1.248zm23.6 8.212c-.163 1.466-.938 2.603-1.657 3.283-1.206 1.132-3.016 2-5.263 2-4.14 0-7.047-2.68-7.047-7.318 0-3.414 1.655-7.802 7.153-7.802.83 0 3.237.076 5.02 2.03 1.82 1.978 1.925 4.743 1.98 6.342h-9.96c-.027 1.762.782 3.522 3 3.522 2.242 0 3.01-1.31 3.227-2.058h3.55zm-4.063-4.064c-.08-.597-.185-1.384-.77-2.004-.51-.52-1.283-.79-2.006-.79-.988 0-1.684.488-2.08.92-.565.625-.7 1.277-.832 1.874h5.687zM72.887 0H77v19.134h-4.113V0z"></path></g></svg>
