<svg width="24" height="24" viewBox="0 0 24 24" xmlns="http://www.w3.org/2000/svg" xmlns:xlink="http://www.w3.org/1999/xlink">
    <defs>
        <path d="M14.783 13.28A6.463 6.463 0 0 0 16 9.5 6.5 6.5 0 1 0 9.5 16c1.407 0 2.715-.45 3.783-1.218L19 20.49 20.49 19c-3.807-3.813-5.709-5.72-5.707-5.72zM9.5 14C7.01 14 5 11.99 5 9.5S7.01 5 9.5 5 14 7.01 14 9.5 11.99 14 9.5 14z" id="1kfw5exu0a"/>
    </defs>
    <g fill="none" fill-rule="evenodd">
        <path d="M0 0h24v24H0z"/>
        <mask id="zomqolhbbb" fill="#fff">
            <use xlink:href="#1kfw5exu0a"/>
        </mask>
        <use fill="#000" fill-rule="nonzero" xlink:href="#1kfw5exu0a"/>
        <g mask="url(#zomqolhbbb)" fill="#353F49">
            <path d="M0 0h24v24H0z"/>
        </g>
    </g>
</svg>
